<?xml version="1.0" encoding="UTF-8"?>
<svg id="Layer_1" xmlns="http://www.w3.org/2000/svg" viewBox="0 0 693.3105 830.4085">
  <defs>
    <style>
      .cls-1, .cls-2 {
        font-family: DMSans-Bold, 'DM Sans';
        font-size: 157.8596px;
        font-variation-settings: 'opsz' 14, 'wght' 700;
        font-weight: 700;
      }

      .cls-1, .cls-2, .cls-3 {
        fill: #0f3ca1;
      }

      .cls-2, .cls-4 {
        letter-spacing: .03em;
      }

      .cls-5 {
        fill: #fefefe;
      }

      .cls-6 {
        letter-spacing: -.043em;
      }
    </style>
  </defs>
  <g>
    <text class="cls-2" transform="translate(-.0002 643.271)"><tspan x="0" y="0">CRICKET</tspan></text>
    <text class="cls-1" transform="translate(63.613 789.3657)"><tspan class="cls-6" x="0" y="0">P</tspan><tspan class="cls-4" x="90.1377" y="0">ANGA</tspan></text>
  </g>
  <path class="cls-3" d="M544.5457,79.7061l-1.5941,44.1187-3.0784,84.9062c-2.4956,68.8991-29.0789,133.8843-73.7804,183.8298-11.9834,13.4016-25.2861,25.7148-39.7651,36.7418-10.1694,7.7287-20.9325,14.8198-32.2343,21.2073-.3079.1759-.6157.3518-.9235.5278-4.0897,2.2867-8.2345,4.4855-12.4561,6.5964l-34.609,17.3045-34.6089-17.3045c-1.4073-.7036-2.8034-1.4183-4.1887-2.1328-92.8549-48.2525-151.5515-143.8338-154.7069-248.4303l-3.8369-127.3649L346.1049,0l198.4408,79.7061Z"/>
  <g>
    <path class="cls-5" d="M460.8662,173.1576c.039-.0685.0617-.1258.0617-.2054,0-.1387.2072-.6104.3913-1.0455,1.3833-3.1965,5.4937-12.7992-.7549-21.1556-.0025-.0036-.0046-.0073-.0071-.0108-1.1921-1.6886-2.5693-2.9831-4.0535-3.966-3.0626-2.1617-6.747-3.2502-10.7374-3.0532-6.8243.292-13.4962,4.0683-17.9109,10.185l-1.2472-1.0866c-.1266-.0952-.3161-.136-.4984-.1126-.1838.0174-.3555.1126-.4544.2393l-1.5832,2.3821c-.1096.2038-.121.4777,0,.6589l.2065.4169.0086.0152c-.5502,1.0214-2.3607,4.3938-3.5675,6.8803-5.5566-8.5944-21.6827-5.1991-31.4622-3.1325-1.1085.2279-2.1277.4567-3.0426.6179-.0189.0058-.0303.0193-.0483.026-10.7359,1.7272-19.3984,2.3396-27.9439,1.9513-.4632-.2133-.9048-.4072-1.3299-.5862,0-.0006,0-.001,0-.0016-.16-4.1538-5.1991-6.1874-6.9214-6.8809-2.3062-.8806-5.1629-1.3835-6.2406-1.5204l-.3232-1.2604c-.0114-.0724-.0343-.1397-.0663-.2001v-.002h-.0012c-.0967-.1807-.2762-.2982-.4805-.2982-.2771-.0183-5.0976-.3269-9.8848-.1561l-5.0015-7.0118.2143-3.5298c0-.1646-.0554-.3146-.1933-.4533-.2058-.2801-23.7336-28.4031-34.1878-42.0776-4.1706-5.4495-9.6134-11.0288-14.6679-15.7833-.5467-.526-1.0747-1.0238-1.5569-1.4548-.0324-.029-.066-.0583-.0986-.0874-6.9369-6.393-12.7488-10.9533-12.8512-11.0307-.1146-.1013-.2742-.163-.4126-.1465-.2658.0186-5.1638.4625-8.4591,5.5697-.1502.2029-.2772.4064-.3724.6097-.3844.6651-.7431,1.3971-1.0619,2.2126-.1933.2913-.2976.5939-.2976.8565,0,.0823.0447.2288.1256.4014,1.2518,2.5164,11.9029,14.3375,38.9179,43.6696,11.7646,12.8303,22.8861,24.9532,23.5512,26.1061.1142.1942.3323.3215.5612.3215.1146,0,.2267-.0303.3327-.0902.0468-.0371.1015-.0814.1015-.1472h.049c.1128,0,.2405-.0432.3543-.1153l1.2508-.9301,4.5317,4.444c-1.6277.5463-4.3014,1.5775-5.7026,2.8565-.0056.0051-.0093.0107-.0149.0158-.8898.7304-1.4538,1.5044-1.5229,2.2735-.1139.8122.1401,1.5057.6424,2.0137.7009.7092,1.879,1.0946,3.5875,1.1413-.3975.9024-.5855,2.1789.153,3.5596.5568.9687,1.7271,1.3034,3.0051,1.3118-.2155,1.1192-.341,2.9373.9091,3.6188.1879.0871.4243.1387.6826.1728-.002.0057-.0031.0096-.0051.0154-.3667,1.309-.5048,3.111.9195,3.8142.5977.2513,1.3749.357,2.2366.357h.0908c.0053,0,.0109-.0002.0162-.0002-.0543.4892-.1521,2.1943,1.0877,3.3004.3811.3588.9081.6199,1.5429.7879.0081.0145.0081.0303.0176.0444.0323.098.6169,1.1437,1.9378,2.2269.0086.076.0255.1531.0594.2287.168.3128.3588.6092.5655.8928-.0031.065-.0069.1302.0081.1977.5843,2.3925,2.2952,4.4002,4.8078,5.612,1.7229.8242,3.7081,1.263,5.6567,1.263,1.7794,0,3.5485-.3563,5.0625-1.0577.4803-.2231.8847-.4918,1.2366-.7864.0276.0037.0537.0142.0819.0142.0355,0,.0819-.0234.1291-.0234,1.7077-.3537,4.6354-2.4923,7.4478-4.6498.4638-.3495.9409-.7043,1.2136-.8912,3.5262,3.2293,8.0946,7.2507,13.182,11.3668.173.1673.268.2619.268.2619,0,0-.2775.3686-.7527,1.0143-.0244-.0279-.0398-.0614-.0703-.0849-.2306-.2359-.6549-.2359-.9078.0276-2.7014,3.0583-5.226,7.6741-7.9402,12.5788-4.4353,8.1163-9.5014,17.2789-15.8963,19.3688-.1287.0523-.2274.1464-.302.2545-.4253.1703-.6742.2524-.6742.2524-.3203.0546-.5733.3806-.5019.7265.0099.0678.0667.3651.2244.8442-.9429.659-7.6511,5.7081-14.9281,20.5583-7.6312,15.6413-13.2226,36.6493-13.2659,36.8668-.0049.0209.0003.0407-.0026.0615-.0152.0112-.03.0215-.0453.0328-.6077.425-1.1816.9174-1.7315,1.497-.0863.0751-.1297.121-.1706.1903-.0084.0122-.0163.0236-.0238.0363-.0006.0013-.0015.0019-.0021.0032-.2298.2427-.3888.441-.5747.6702-2.9362,3.8166-3.6133,9.2899-1.972,15.3723.7932,2.8078,1.4924,5.5326,2.1916,8.1321.1738.7819.3799,1.5056.5757,2.2051.3554,1.3428.6869,2.5866,1.0009,3.7523.9215,3.8606,1.7711,6.9589,2.5929,8.8947.5411,1.5637.9842,2.5183,1.364,2.8792.8946.8954,1.6971,1.0678,2.2249,1.0678,1.9042,4.6482,17.2943,42.8438,20.1174,50.1827,1.0571,2.8624,1.735,5.5868,2.2505,7.799.9642,3.9571,1.6411,6.8671,4.2242,6.8671h.2519c-.7709,1.5569-1.2522,3.4736-.8723,5.2618.011.0955.0458.2246.1014.3683v.0245c.2544.9362.7709,1.8759,1.6084,2.6673.2405.1993.5275.3891.8489.5154,1.0099.4484,2.4914.6435,4.1426.6435,1.4023,0,2.9387-.1493,4.4414-.3097,3.8113-.4792,7.3559-1.3711,8.0576-1.6988.5906-.254.9628-.4821,1.3356-.7205.7187-.4594,1.4523-.9103,3.9557-1.5534,1.651-.3909,2.2427-1.4573,2.4157-2.2824.4867-2.2285-1.2941-5.2392-2.2458-5.9664-.4462-.3746-.2331-2.331.2437-3.8642.0964-.3572-.0919-.7049-.4136-.7996-.195-.0659-.3813-.0397-.5276.0447.007-.0772.0136-.1469.0197-.208,1.6534-.1283,3.0282-.7187,3.8003-1.6188.5406-.6482.7361-1.3537.6087-2.1246-.03-.2021-.0958-.4466-.1798-.7137-.0563-.2304-.1392-.4721-.2554-.7269-.0098-.0214-.0215-.0456-.0315-.0673-.6417-1.614-1.8807-4.0187-3.523-7.2428-2.3455-4.5673-5.5857-10.8842-8.7546-18.1829-2.3994-5.5305-4.1132-11.7231-5.7659-17.7094-2.043-7.3676-4.0061-14.3092-7.0356-20.2117.0915-.1256.1831-.2523.2533-.4396.8234-1.6556.32-5.1732-1.4136-10.114-.2054-.5764-.4466-1.271-.7464-2-.0006-.0015-.0012-.0031-.0019-.0045,2.4817-7.9257,8.0979-17.1236,9.2488-18.9818.3307,5.6451,1.0434,11.7376,2.3607,17.8886.4273,2.1517.9422,4.3097,1.5677,6.3837.0004.0014.0009.0028.0013.0043,4.2709,15.8347,8.8415,25.9173,11.244,30.6188-.7767,1.1784-3.5568,5.5221-4.0196,8.5342-.2529,1.6209.6701,3.5936,1.7325,5.8717,1.2238,2.6258,2.5999,5.6276,2.1632,8.3158-.0645.3494.1724.6743.5176.708h.0361l-.6445,2.288c-.427.9538-.7799,1.7932-.7695,2.732,0,0,.0369.4721.1817,1.1293-.0025.0106-.0065.022-.0089.0325-.0712.6058.13,1.2315.655,1.8578.5844,1.1871,1.568,2.2751,3.2269,2.2873.0006,0,.0012,0,.0018,0,1.8768.9303,4.0903,1.6175,5.6531,1.6175.1888,0,.3771,0,.5446-.0702.3732,1.0255,4.2398,10.8501,11.8026,14.3695.6892.3019,1.3498.5577,1.9982.7648,1.2498.4168,2.376.6336,3.347.6336.8769,0,1.6577-.1554,2.3444-.469.237-.0911.4247-.2107.6194-.3302,2.2271-1.3949,3.3513-4.6603,3.4694-9.936.1578-8.6252-5.4829-15.5841-6.1761-16.3972,4.3779-1.9738,8.9739-6.2023,9.716-12.7835.0773-.6785.1179-1.3238.1423-1.9517.7592-5.0749-.7611-8.1365-1.6287-9.4112-.1119-.2394-.1915-.3882-.2082-.4173-.0841-.1057-.1803-.2056-.3051-.2424-.0201-.0214-.0333-.0349-.0333-.0349-.004-.0019-.0087-.0024-.0127-.0042-.1472-.3217-.331-.5648-.5215-.7145-2.4679-2.297-5.7038-1.4033-7.2633-.9447h-.0107c-.0905-1.6655-.3255-5.9649-.5646-11.0603.0935-4.9836-.0073-11.1405-.6199-17.6825-.0045-.3133-.0085-.6225-.0114-.9223-.0564-10.7774-3.5062-38.3269-3.5574-38.6242l.753-.2646c.1251.3706.187.6429.1896.7924-.0649.3494.1656.6591.5363.7049.023,0,.0362.0149.0926.0149.2994,0,.575-.2533.6364-.5506.0164-.1096-.0102-.325-.0816-.6221.1206-.0097.2329-.039.3363-.093.0245-.0208.0388-.049.0601-.0724.0052-.0049.0084-.0112.0135-.0162.0412-.048.0785-.0964.1055-.1519.0165-.0325.026-.0676.0366-.1035.0144-.0477.025-.0936.0282-.1425.0008-.0137.0077-.0247.0077-.0388,0-.0652.0179-2.7131.5645-6.7347,1.495-9.1374,6.1826-26.1146,20.7992-37.5027,1.466-1.1161,2.9159-2.1476,4.3206-3.146,2.5357-1.803,4.9298-3.4933,7.0459-5.4394,2.6797-2.4139,4.3453-5.4974,5.3836-8.4574,1.1907-2.5451,1.5083-4.6528,1.4563-6.2743.2778-2.1809.2539-3.6969.2539-3.8612-.0026-.0417-.0195-.0773-.0289-.1164.6926-.1222,1.6073-.3611,2.6055-.8133.1026-.0455.2134-.0838.3114-.1331,2.8896-1.3531,4.9133-4.2431,5.3955-4.9673.4155.0321.7405.0437.9427.0437.15,0,.2238-.0218.2377-.0218.3097,0,.5474-.2315.5892-.5183l.3165-1.8941,5.1296-3.8452c.0122-.0088.0181-.0226.0295-.0322.0059-.0058.012-.0077.018-.0138.0447,0,.0447-.0175.0447-.0392l1.8822-1.7613c.1256-.1249.1841-.3095.1841-.4786l-.0348-1.5811,5.9221-7.4593c.2423-.2643.1823-.6543-.0816-.8737l-1.7833-1.5828ZM406.7994,340.8998c.031-.0702.0411-.1422.0449-.2134.1669.0797.3283.1767.4873.2912l-.5423-.0519c.0023-.0062.0087-.0221.0101-.0259ZM326.893,170.1688c0-.0077.0045-.0152.0057-.0229.0505-.0056.103-.0137.1542-.0201-.055.0291-.1148.0625-.179.0999.0063-.0175.013-.0406.0191-.0569ZM350.1112,394.4685c.0017.0003.0033.0006.005.0009l-.005.0387v-.0397ZM359.3348,285.8399l.2487-.4932c.0081.1795.0158.3584.0247.539-.0897-.0378-.1808-.0529-.2734-.0458ZM372.1097,350.7757c.0456-.2989.1256-.6195.2204-.948-.1175.8128-.1689,1.6123-.1102,2.3548-.1251-.5181-.1799-.9953-.1102-1.4067ZM400.1641,365.169c-.1345-.1045-.2111-.1554-.2111-.1554,0,0,.7871-.1497,1.951-.6344-.5815.3045-1.1639.5673-1.7398.7898ZM405.7019,340.3042c-.0331.045-.0697.0874-.0905.1415-.0034.0072-.0573.139-.1553.3523l-2.9787-.2852c.9066-.2238,2.0713-.4328,3.2244-.2086Z"/>
    <path class="cls-5" d="M239.1334,97.5888c-5.9369.5729-10.2828,5.8538-9.7,11.7699.575,5.9275,5.8532,10.2695,11.7646,9.6967,5.9213-.567,10.296-5.8513,9.7078-11.7658-.5722-5.9291-5.8667-10.2772-11.7724-9.7007Z"/>
  </g>
</svg>